<svg width="256" height="256" viewBox="0 0 256 256" fill="none" xmlns="http://www.w3.org/2000/svg">
<rect width="256" height="256" fill="white"/>
<g clip-path="url(#clip0_37_460)">
<path d="M101.339 179.647C112.557 179.647 121.651 170.511 121.651 159.24C121.651 147.97 112.557 138.834 101.339 138.834C90.1217 138.834 81.0278 147.97 81.0278 159.24C81.0278 170.511 90.1217 179.647 101.339 179.647Z" fill="black"/>
<path d="M154.428 179.647C165.646 179.647 174.74 170.511 174.74 159.24C174.74 147.97 165.646 138.834 154.428 138.834C143.211 138.834 134.117 147.97 134.117 159.24C134.117 170.511 143.211 179.647 154.428 179.647Z" fill="black"/>
<path d="M127.85 75C72.699 75 27.9856 120.778 28 177.231H53.5086C53.5086 134.924 86.5288 100.623 127.85 100.623C169.171 100.623 202.191 134.924 202.191 177.231H227.699C227.709 120.778 182.995 75 127.85 75Z" fill="black"/>
</g>
<defs>
<clipPath id="clip0_37_460">
<rect width="200" height="105" fill="white" transform="translate(28 75)"/>
</clipPath>
</defs>
</svg>
