<svg width="256" height="256" viewBox="0 0 256 256" fill="none" xmlns="http://www.w3.org/2000/svg">
<rect width="256" height="256" fill="white"/>
<g clip-path="url(#clip0_37_473)">
<mask id="mask0_37_473" style="mask-type:luminance" maskUnits="userSpaceOnUse" x="38" y="43" width="180" height="169">
<path d="M218 43.5813H38V211.419H218V43.5813Z" fill="white"/>
</mask>
<g mask="url(#mask0_37_473)">
<path d="M59.0176 157.523V205.891C59.0176 208.868 61.535 210.104 62.3182 210.385C63.1015 210.722 65.7307 211.452 68.0802 209.261L104.635 174.098C107.748 171.104 110.752 167.957 113.01 164.274C114.073 162.543 114.513 161.568 114.513 161.568C116.751 157.018 116.751 152.636 114.568 148.254C111.325 141.738 103.045 135.109 90.569 128.817L69.2551 140.727C62.9336 144.322 59.0176 150.67 59.0176 157.523Z" fill="black" fill-opacity="0.8"/>
<path d="M38 49.9461V100.673C38 107.021 42.2517 112.638 48.2937 114.436C68.8807 120.391 104.74 133.199 113.411 152.018C114.529 154.489 115.201 156.905 115.426 159.433C121.188 148.928 123.817 136.85 122.586 124.604C120.907 107.246 111.732 91.4601 97.4117 81.4047L46.3356 45.6206C45.4404 44.9464 44.3775 44.6094 43.3146 44.6094C42.4194 44.6094 41.6362 44.7779 40.7972 45.2273C39.1188 46.1823 38 47.9238 38 49.9461Z" fill="black"/>
<path d="M194.978 157.523V205.891C194.978 208.868 192.461 210.104 191.677 210.385C190.895 210.722 188.264 211.452 185.915 209.261L148.51 173.281C145.963 170.831 143.532 168.24 141.614 165.272C140.095 162.922 139.483 161.568 139.483 161.568C137.245 157.018 137.245 152.636 139.425 148.254C142.671 141.738 150.951 135.109 163.425 128.817L184.74 140.727C191.118 144.322 194.978 150.67 194.978 157.523Z" fill="black" fill-opacity="0.8"/>
<path d="M216.03 49.9424V100.669C216.03 107.017 211.777 112.635 205.735 114.432C185.149 120.387 149.29 133.195 140.618 152.014C139.498 154.486 138.827 156.901 138.604 159.429C132.842 148.925 130.213 136.847 131.443 124.6C133.12 107.242 142.295 91.4566 156.618 81.4009L207.694 45.6169C208.589 44.9428 209.652 44.6057 210.714 44.6057C211.609 44.6057 212.393 44.7742 213.231 45.2237C214.91 46.1786 216.03 47.9201 216.03 49.9424Z" fill="black"/>
</g>
</g>
<defs>
<clipPath id="clip0_37_473">
<rect width="180" height="168" fill="white" transform="translate(38 44)"/>
</clipPath>
</defs>
</svg>
