<svg width="257" height="256" viewBox="0 0 257 256" fill="none" xmlns="http://www.w3.org/2000/svg">
<rect x="0.559082" width="256" height="256" fill="#1A2231"/>
<mask id="mask0_68_538" style="mask-type:luminance" maskUnits="userSpaceOnUse" x="62" y="53" width="133" height="150">
<path d="M194.769 53.269H62.3506V202.731H194.769V53.269Z" fill="white"/>
</mask>
<g mask="url(#mask0_68_538)">
<path d="M67.3774 98.7026V157.298C67.3774 161.039 69.376 164.498 72.6129 166.362L123.336 195.666C126.573 197.53 130.558 197.53 133.795 195.666L184.518 166.362C187.755 164.498 189.754 161.039 189.754 157.298V98.7026C189.754 94.9614 187.755 91.5024 184.518 89.6379L133.795 60.3344C130.558 58.4699 126.573 58.4699 123.336 60.3344L72.6005 89.6379C69.3637 91.5024 67.3774 94.9614 67.3774 98.7026Z" fill="#213147"/>
<path d="M139.631 139.364L132.397 159.211C132.201 159.763 132.201 160.364 132.397 160.916L144.842 195.065L159.236 186.748L141.96 139.364C141.568 138.273 140.023 138.273 139.631 139.364Z" fill="#12AAFF"/>
<path d="M154.135 105.989C153.743 104.897 152.198 104.897 151.806 105.989L144.572 125.835C144.375 126.387 144.375 126.988 144.572 127.54L164.962 183.449L179.356 175.132L154.135 105.989Z" fill="#12AAFF"/>
<path d="M128.56 62.5299C128.915 62.5299 129.271 62.628 129.589 62.7998L184.482 94.5075C185.119 94.8755 185.512 95.5624 185.512 96.286V159.689C185.512 160.425 185.119 161.1 184.482 161.468L129.589 193.176C129.283 193.359 128.915 193.445 128.56 193.445C128.204 193.445 127.848 193.348 127.53 193.176L72.6375 161.492C71.9999 161.124 71.6076 160.438 71.6076 159.714V96.2983C71.6076 95.5624 71.9999 94.8877 72.6375 94.5198L127.53 62.812C127.848 62.628 128.204 62.5299 128.56 62.5299ZM128.56 53.269C126.61 53.269 124.649 53.7719 122.895 54.79L68.0151 86.4855C64.5085 88.5094 62.3506 92.2505 62.3506 96.2983V159.702C62.3506 163.75 64.5085 167.491 68.0151 169.514L122.908 201.222C124.66 202.228 126.61 202.743 128.572 202.743C130.522 202.743 132.483 202.241 134.236 201.222L189.128 169.514C192.635 167.491 194.793 163.75 194.793 159.702V96.2983C194.793 92.2505 192.635 88.5094 189.128 86.4855L134.224 54.79C132.47 53.7719 130.509 53.269 128.56 53.269Z" fill="#9DCCED"/>
<path d="M92.2554 183.522L97.3069 169.686L107.471 178.137L97.969 186.822L92.2554 183.522Z" fill="#213147"/>
<path d="M123.938 91.7598H110.021C108.979 91.7598 108.047 92.4099 107.692 93.3911L77.8608 175.205L92.2551 183.522L125.102 93.428C125.409 92.6184 124.808 91.7598 123.938 91.7598Z" fill="white"/>
<path d="M148.288 91.7598H134.371C133.329 91.7598 132.397 92.4099 132.042 93.3911L97.981 186.809L112.375 195.126L149.453 93.428C149.747 92.6184 149.146 91.7598 148.288 91.7598Z" fill="white"/>
</g>
</svg>
