<svg width="257" height="256" viewBox="0 0 257 256" fill="none" xmlns="http://www.w3.org/2000/svg">
<rect x="0.559082" width="256" height="256" fill="#F2F6FE"/>
<g clip-path="url(#clip0_68_552)">
<path d="M128.059 202C169.204 202 202.559 168.645 202.559 127.5C202.559 86.3548 169.204 53 128.059 53C86.9139 53 53.5591 86.3548 53.5591 127.5C53.5591 168.645 86.9139 202 128.059 202Z" fill="#0052FF"/>
<path d="M128.389 179.272C157.264 179.272 180.671 155.904 180.671 127.079C180.671 98.2544 157.264 74.8872 128.389 74.8872C100.994 74.8872 78.5196 95.9202 76.2876 122.692H145.394V131.466H76.2876C78.5196 158.238 100.994 179.272 128.389 179.272Z" fill="white"/>
</g>
<defs>
<clipPath id="clip0_68_552">
<rect width="149" height="149" fill="white" transform="translate(53.5591 53)"/>
</clipPath>
</defs>
</svg>
