<svg width="256" height="256" viewBox="0 0 256 256" fill="none" xmlns="http://www.w3.org/2000/svg">
<rect width="256" height="256" fill="white"/>
<g clip-path="url(#clip0_37_467)">
<path d="M218.007 124.104C216.107 79.0878 181.44 42.5889 137.348 38.0449C132.232 37.5147 128.049 41.7557 128.049 46.9228V71.8696C128.049 77.0368 132.26 81.1281 137.304 82.1479C154.617 85.6554 168.453 98.8036 173.015 115.777C174.861 115.143 176.963 114.756 179.392 114.747C187.772 114.786 192.294 119.437 195.817 123.198C199.112 126.668 201.74 129.393 207.252 129.474C212.384 129.482 215.011 127.155 218.007 124.104Z" fill="#3F75FF"/>
<path d="M88.2254 46.8699C93.9053 44.054 100.105 48.5382 100.105 54.8997V114.993C91.7183 115.052 87.2448 119.613 83.7096 123.321L83.6354 123.397C80.3345 126.789 77.7125 129.483 72.1901 129.474C66.6789 129.393 64.0501 126.668 60.7552 123.198C57.2324 119.437 52.7109 114.786 44.3305 114.747C42.2909 114.755 40.482 115.028 38.8613 115.491C43.0206 85.2987 62.0204 59.8689 88.2254 46.8699Z" fill="#3F75FF"/>
<path d="M137.341 217.955C132.225 218.482 128.042 214.244 128.042 209.078V184.13C128.042 178.966 132.253 174.872 137.297 173.852C158.584 169.54 174.615 150.652 174.615 128C174.615 127.794 174.613 127.588 174.611 127.383C175.963 126.836 177.511 126.523 179.397 126.526C184.909 126.607 187.537 129.332 190.832 132.802C194.355 136.563 198.877 141.214 207.257 141.254C211.567 141.236 214.847 140.033 217.498 138.363C212.726 180.367 179.302 213.631 137.341 217.955Z" fill="#003F99"/>
<path d="M38 128.155C38.0594 163.676 58.5079 194.393 88.2182 209.13C93.8981 211.946 100.098 207.462 100.098 201.1V126.772C94.6325 126.791 92.0202 129.475 88.7361 132.85L88.6619 132.926C85.1163 136.645 80.6277 141.22 72.1949 141.254C63.8145 141.214 59.293 136.563 55.7702 132.802C52.4753 129.332 49.8465 126.607 44.3353 126.526C41.6887 126.522 39.7083 127.138 38 128.155Z" fill="#003F99"/>
</g>
<defs>
<clipPath id="clip0_37_467">
<rect width="180" height="180" fill="white" transform="translate(38 38)"/>
</clipPath>
</defs>
</svg>
