<svg width="253" height="256" viewBox="0 0 253 256" fill="none" xmlns="http://www.w3.org/2000/svg">
<mask id="mask0_68_504" style="mask-type:luminance" maskUnits="userSpaceOnUse" x="0" y="0" width="253" height="256">
<path d="M0 0H252.559V256H0V0Z" fill="white"/>
</mask>
<g mask="url(#mask0_68_504)">
<path d="M0 256C70.6951 256 252.559 256 252.559 256C252.559 185.309 252.559 0 252.559 0C181.868 0 0.000115289 0.000111898 0.000115289 0.000111898L0 256Z" fill="#FF0420"/>
<path d="M87.2538 162.019C79.6307 162.019 73.3872 160.227 68.5161 156.64C63.7161 152.988 61.3125 147.801 61.3125 141.077C61.3125 139.669 61.4725 137.938 61.7925 135.886C62.8297 130.316 64.0153 124.774 65.3481 119.267C69.7036 101.657 80.9427 92.8496 99.0689 92.8496C104.001 92.8496 108.42 93.6816 112.328 95.3456C116.235 96.9456 119.307 99.3812 121.551 102.649C123.791 105.849 124.911 109.692 124.911 114.176C124.911 115.523 124.751 117.219 124.431 119.267C123.494 124.851 122.34 130.396 120.971 135.89C118.731 144.665 114.856 151.228 109.348 155.584C103.837 159.875 96.4769 162.019 87.2503 162.019H87.2538ZM88.5978 148.188C92.1854 148.188 95.2254 147.129 97.7249 145.017C100.285 142.901 102.113 139.669 103.201 135.31C104.673 129.29 105.796 124.039 106.564 119.559C106.822 118.196 106.95 116.811 106.948 115.424C106.948 109.596 103.904 106.684 97.8209 106.684C94.2298 106.684 91.1578 107.74 88.5978 109.852C86.0983 111.968 84.3063 115.203 83.2183 119.559C82.0627 123.847 80.9107 129.098 79.7587 135.31C79.5027 136.59 79.3747 137.941 79.3747 139.346C79.3747 145.241 82.4503 148.188 88.5978 148.188ZM129.323 161.059C128.619 161.059 128.072 160.835 127.688 160.384C127.368 159.868 127.266 159.247 127.403 158.656L140.658 96.2132C140.777 95.5226 141.155 94.9033 141.714 94.4816C142.229 94.0558 142.874 93.8187 143.542 93.8096H169.096C176.207 93.8096 181.906 95.2816 186.198 98.2292C190.55 101.177 192.729 105.433 192.729 111.008C192.729 112.608 192.537 114.272 192.153 116.003C190.553 123.367 187.318 128.811 182.447 132.334C177.647 135.854 171.048 137.618 162.66 137.618H149.689L145.27 158.659C145.15 159.349 144.773 159.967 144.214 160.387C143.699 160.813 143.054 161.051 142.386 161.059H129.323ZM163.332 124.359C166.02 124.359 168.36 123.623 170.344 122.151C172.395 120.679 173.739 118.563 174.379 115.811C174.571 114.72 174.667 113.76 174.667 112.928C174.667 111.072 174.123 109.66 173.032 108.7C171.944 107.676 170.088 107.164 167.464 107.164H155.933L152.285 124.359H163.332Z" fill="white"/>
</g>
</svg>
