<svg width="256" height="256" viewBox="0 0 256 256" fill="none" xmlns="http://www.w3.org/2000/svg">
<rect width="256" height="256" fill="white"/>
<path d="M196.657 99.8305C194.679 94.8836 192.172 90.2005 189.204 85.7813C175.815 65.9938 153.125 53 127.467 53C86.309 53 53 86.375 53 127.467C53 168.625 86.3749 202 127.467 202C153.191 202 175.815 189.006 189.204 169.219C192.172 164.865 194.613 160.182 196.657 155.235C200.087 146.661 202 137.295 202 127.533C201.934 117.771 200.087 108.405 196.657 99.8305ZM186.698 119.948H101.413C102.733 115.331 105.173 111.241 108.471 108.009C113.484 102.996 120.409 99.8964 128.061 99.8964H180.432C183.664 106.031 185.774 112.758 186.698 119.948ZM127.071 67.4449C144.023 67.4449 159.391 74.5024 170.34 85.8473H129.907C118.365 85.8473 107.943 90.5303 100.424 98.0496C94.5538 103.92 90.4644 111.439 88.9473 119.948H67.5108C71.2045 90.3324 96.4666 67.4449 127.071 67.4449ZM127.071 187.687C96.4666 187.687 71.2045 164.799 67.4449 135.184H88.8814C92.4431 154.576 109.46 169.285 129.907 169.285H170.34C159.457 180.629 144.089 187.687 127.071 187.687ZM128.061 155.301C115.397 155.301 104.711 146.793 101.413 135.184H186.698C185.774 142.374 183.598 149.101 180.432 155.301H128.061Z" fill="#1E1E1C"/>
</svg>
